<?xml version="1.0" encoding="UTF-8"?>
<svg xmlns="http://www.w3.org/2000/svg" xmlns:xlink="http://www.w3.org/1999/xlink" viewBox="0 0 631.33 305.09">
  <defs>
    <style>
      .cls-1 {
        fill: url(#linear-gradient-2);
      }

      .cls-1, .cls-2, .cls-3, .cls-4, .cls-5, .cls-6 {
        mix-blend-mode: multiply;
      }

      .cls-7 {
        fill: #fff;
      }

      .cls-8 {
        fill: url(#linear-gradient-4);
      }

      .cls-9 {
        fill: url(#linear-gradient-3);
      }

      .cls-10 {
        isolation: isolate;
      }

      .cls-2 {
        fill: url(#linear-gradient-5);
      }

      .cls-4 {
        fill: url(#linear-gradient);
      }

      .cls-5 {
        fill: url(#linear-gradient-6);
      }

      .cls-6 {
        fill: url(#linear-gradient-7);
      }
    </style>
    <linearGradient id="linear-gradient" x1="156.15" y1="94.65" x2="168.28" y2="167.86" gradientUnits="userSpaceOnUse">
      <stop offset="0" stop-color="#fff" stop-opacity="0"/>
      <stop offset=".53" stop-color="#7a7879" stop-opacity=".6"/>
      <stop offset="1" stop-color="#231f20"/>
    </linearGradient>
    <linearGradient id="linear-gradient-2" x1="312.46" y1="68.76" x2="324.58" y2="141.97" xlink:href="#linear-gradient"/>
    <linearGradient id="linear-gradient-3" x1="259.18" y1="287.94" x2="352.74" y2="40.09" gradientUnits="userSpaceOnUse">
      <stop offset="0" stop-color="#231f20"/>
      <stop offset=".55" stop-color="#231f20"/>
      <stop offset=".69" stop-color="#363335"/>
      <stop offset=".98" stop-color="#68696c"/>
      <stop offset="1" stop-color="#6d6e71"/>
    </linearGradient>
    <linearGradient id="linear-gradient-4" x1="149.02" y1="246.36" x2="242.58" y2="-1.49" xlink:href="#linear-gradient-3"/>
    <linearGradient id="linear-gradient-5" x1="306.01" y1="155.17" x2="320.93" y2="250.77" gradientUnits="userSpaceOnUse">
      <stop offset="0" stop-color="#5cbffc" stop-opacity="0"/>
      <stop offset=".32" stop-color="#5c81e0" stop-opacity=".38"/>
      <stop offset=".64" stop-color="#5c4ac7" stop-opacity=".71"/>
      <stop offset=".88" stop-color="#5c28b7" stop-opacity=".92"/>
      <stop offset="1" stop-color="#5c1cb2"/>
    </linearGradient>
    <linearGradient id="linear-gradient-6" x1="170.15" y1="176.38" x2="185.07" y2="271.98" xlink:href="#linear-gradient-5"/>
    <linearGradient id="linear-gradient-7" x1="403.72" y1="801.85" x2="403.72" y2="789.7" gradientTransform="translate(906.51 870.64) rotate(-180)" xlink:href="#linear-gradient"/>
  </defs>
  <g class="cls-10">
    <g id="Layer_1">
      <g>
        <path d="M0,132.55c0-36.59,26.88-63.47,64.97-63.47,30.62,0,54.14,17.36,61.98,43.31h-14.19c-7.28-18.67-25.02-30.99-47.79-30.99-30.43,0-51.52,21.66-51.52,51.15s21.1,51.15,51.52,51.15c22.78,0,40.51-12.32,47.79-30.99h14.19c-7.84,25.95-31.36,43.31-61.98,43.31C26.88,196.02,0,169.14,0,132.55Z"/>
        <path d="M366.81,61.05h12.51v132.55h-12.51V61.05Z"/>
        <path d="M404.71,61.05h12.51v81.58l48.91-41.26h17.55l-53.21,44.8,55.07,47.42h-17.73l-50.59-43.87v43.87h-12.51V61.05Z"/>
        <path d="M532.2,147.11c0-28.38,20.72-48.16,47.79-48.16,17.55,0,31.92,8.21,38.83,22.22v-60.11h12.51v85.88c0,29.68-20.72,49.1-49.28,49.1s-49.85-20.54-49.85-48.91ZM618.83,147.49c0-21.28-14.75-36.96-36.96-36.96s-36.96,15.68-36.96,36.96,14.93,36.96,36.96,36.96,36.96-15.68,36.96-36.96Z"/>
        <g>
          <path d="M8.45,260.35c0-25.79,18.95-44.74,45.8-44.74,21.58,0,38.16,12.24,43.69,30.53h-10c-5.13-13.16-17.63-21.85-33.69-21.85-21.45,0-36.32,15.27-36.32,36.06s14.87,36.06,36.32,36.06c16.05,0,28.56-8.69,33.69-21.85h10c-5.53,18.29-22.11,30.53-43.69,30.53-26.85,0-45.8-18.95-45.8-44.74Z"/>
          <path d="M109.25,264.43c0-18.69,11.19-27.77,27.37-27.77s27.24,9.08,27.24,27.9v.79h-8.69v-.92c0-13.55-7.5-19.61-18.56-19.61s-18.55,6.05-18.55,19.61v38.95h-8.82v-38.95Z"/>
          <path d="M169.91,270.88c0-19.74,14.48-34.22,35-34.22s34.74,14.48,34.74,34.22v2.89h-60.67c1.18,13.55,11.32,23.16,25.92,23.16,10.26,0,18.16-4.21,22.37-11.71h9.61c-5,11.98-16.84,19.87-31.98,19.87-20.53,0-35-14.48-35-34.21ZM230.44,265.88c-2.11-13.16-12.37-21.06-25.53-21.06s-23.69,8.29-25.66,21.06h51.19Z"/>
          <path d="M247.28,271.27c0-20.27,14.48-34.61,35-34.61s34.87,14.08,34.87,34.61v32.11h-8.16v-16.05c-4.61,11.58-15.4,17.77-28.03,17.77-18.29,0-33.69-13.03-33.69-33.82ZM308.34,270.88c0-15-10.53-26.06-26.06-26.06s-26.06,11.05-26.06,26.06,10.53,26.06,26.06,26.06,26.06-11.05,26.06-26.06Z"/>
          <path d="M330.05,279.43v-64.09h8.82v23.03h38.29v8.03h-38.29v33.03c0,11.84,6.58,17.5,16.71,17.5s16.71-5.53,16.71-17.5v-1.45h8.55v1.45c0,17.11-10.27,25.66-25.27,25.66s-25.53-8.55-25.53-25.66Z"/>
          <path d="M392.03,219.03c0-3.82,2.9-6.71,6.71-6.71s6.71,2.9,6.71,6.71-2.9,6.71-6.71,6.71-6.71-2.9-6.71-6.71ZM394.4,238.37h8.82v65.01h-8.82v-65.01Z"/>
          <path d="M415.85,270.88c0-19.74,14.47-34.22,35-34.22s35,14.48,35,34.22-14.47,34.21-35,34.21-35-14.48-35-34.21ZM476.91,270.88c0-15-10.53-26.06-26.06-26.06s-26.06,11.05-26.06,26.06,10.53,26.06,26.06,26.06,26.06-11.05,26.06-26.06Z"/>
          <path d="M496.12,269.43c0-21.58,12.9-32.77,32.11-32.77s32.11,11.19,32.11,32.77v33.95h-8.82v-33.95c0-16.05-9.21-24.61-23.29-24.61s-23.29,8.55-23.29,24.61v33.95h-8.82v-33.95Z"/>
          <path d="M570.99,285.09h8.95c.39,6.97,6.71,11.98,17.63,11.98s17.63-5.26,17.63-12.24c0-7.9-8.29-8.82-17.63-10-11.71-1.45-25-3.29-25-17.63,0-12.24,9.61-20.53,24.87-20.53s24.61,8.42,24.87,19.48h-8.69c-.39-6.45-6.32-11.45-16.32-11.45s-15.92,5-15.92,11.71c0,8.03,8.42,8.95,17.63,10.13,10.13,1.32,25.13,2.9,25.13,17.63,0,12.37-10.39,20.92-26.58,20.92s-26.19-8.55-26.58-20Z"/>
        </g>
        <path d="M334.53,74.78v61.22c0,2.68-1.09,5.11-2.85,6.88-1.76,1.76-4.18,2.85-6.88,2.85-5.37,0-9.72-4.35-9.72-9.73v-17.97c-9.28-3.38-15.92-9.08-15.92-19.52v-18.56h-115.07v18.56c0,8.95-4.87,13.57-12.08,17.74v19.76c0,2.7-1.09,5.12-2.85,6.88-1.76,1.76-4.18,2.85-6.88,2.85-5.37,0-9.73-4.36-9.73-9.73v-61.22c0-21.42,24.22-36.92,24.22-36.92-13.53-6.93-23.89-29.6-24.21-30.31h-.01c57.83-16.14,103.67,15.78,103.67,15.78-5.64-8.45-4.87-23.18-4.87-23.18,36.24-2.99,53.36,39.19,53.36,39.19,32.61-.51,29.81,35.44,29.81,35.44Z"/>
        <path class="cls-4" d="M152.56,128.09v7.91c0,5.37,4.36,9.73,9.73,9.73s9.73-4.36,9.73-9.73v-9.43c-2.98.66-15.25,1.52-19.46,1.52Z"/>
        <path class="cls-1" d="M334.53,90.35c-7.25,3.07-14.72,5.72-22.08,8.34-4.26,1.51-8.53,2.92-12.82,4.29,1.64,7.66,7.59,12.2,15.44,15.06v17.97c0,5.37,4.36,9.73,9.73,9.73s9.73-4.36,9.73-9.73c0-12.56,0-28.14,0-45.64Z"/>
        <path d="M240.31,144.47c-1.68.15-3.36.41-5.02.77-3.35.72-5.25,4.28-3.96,7.45l.03.07c.95,2.34,3.74,3.8,6.21,3.31,1.21-.24,2.42-.42,3.64-.53,2.92-.25,5.78-.14,8.54.31,2.86.47,5.61-1.28,6.31-4.09h0c.75-3-1.12-6.06-4.15-6.68-3.74-.77-7.63-.99-11.6-.61Z"/>
        <path class="cls-9" d="M345.14,190.15c-9.66,23.17-34.66,23.09-47.71,21.32-16.22-2.2-24.86-14.72-29.86-27.37-4.93-12.47-7.71-25.67-5.76-33.03,1.7-6.43,10.71-11.24,27.43-13.86,19.54-3.06,52.41-3.82,58.89,9.63,2.38,4.95,6.81,19.83-2.99,43.31Z"/>
        <path class="cls-8" d="M139.32,146.84c6.49-13.45,39.35-12.69,58.89-9.63,16.72,2.62,25.73,7.43,27.43,13.86,1.95,7.36-.84,20.56-5.76,33.03-5,12.65-13.64,25.17-29.86,27.37-13.05,1.77-38.04,1.85-47.71-21.32-9.79-23.48-5.37-38.36-2.99-43.31Z"/>
        <path class="cls-2" d="M280.7,203.95c4.43,3.82,9.9,6.58,16.73,7.51,12.81,1.74,37.13,1.83,47.16-20.09-13.4,15.09-51.19,19.29-63.88,12.58Z"/>
        <path class="cls-5" d="M145.64,196.4c11.21,16.87,32.63,16.65,44.37,15.06,4.83-.66,8.97-2.24,12.56-4.45-19.22,3.11-43.38,1-56.93-10.6Z"/>
        <g>
          <g>
            <path d="M299.58,158.42c-1.93-1.44-4.12-2.26-6.44-2.26-3.01,0-5.8,1.37-8.07,3.69,3.25.63,5.7,3.49,5.7,6.92,0,3.9-3.16,7.06-7.06,7.06-1.57,0-3.01-.53-4.18-1.4-.14,1.1-.24,2.21-.24,3.37,0,10.85,6.2,19.64,13.85,19.64s13.85-8.79,13.85-19.64c0-7.54-3-14.09-7.4-17.38Z"/>
            <path d="M198.93,158.42c-1.93-1.44-4.12-2.26-6.44-2.26-3.01,0-5.8,1.37-8.07,3.69,3.25.63,5.7,3.49,5.7,6.92,0,3.9-3.16,7.06-7.06,7.06-1.57,0-3.01-.53-4.18-1.4-.14,1.1-.24,2.21-.24,3.37,0,10.85,6.2,19.64,13.85,19.64s13.85-8.79,13.85-19.64c0-7.54-3-14.09-7.4-17.38Z"/>
          </g>
          <circle class="cls-7" cx="284.86" cy="167.33" r="7.44"/>
          <circle class="cls-7" cx="183.34" cy="167.33" r="7.44"/>
        </g>
        <path d="M271.35,206.92c-1.78-1.94-5.42-4.61-11.53-4.28-3.72.2-3.9,2.77-2.6,3.88,2.59,2.2,4.2,3,4.72,4.14-4.77,5-9.17,6.57-13.33,6.8-4.33.23-9.23.32-14.43-2.52-2.82-1.54-4.28-.22-2.42,2.57,2.02,3.04,6.52,7.82,18.04,7.92,6.33.05,13.3-3.13,17.75-7.87,2.74,2.85,3,6.33,4.26,6.68,1.74.48,3.62-1.92,3.36-6.77-.15-2.95-1.15-7.62-3.83-10.53Z"/>
        <path class="cls-3" d="M288.56,69.34h-93.86c-5.86,0-10.6,4.75-10.6,10.6h115.07c0-5.86-4.75-10.6-10.6-10.6Z"/>
        <path d="M497.66,126.89c-7.34,9.98-9.47,23.55-6.87,35.67.67-2.11,1.46-4.36,2.13-6.46-2.03,13.7,4.21,28.81,15.41,36.95,11.2-8.14,17.44-23.25,15.41-36.95.67,2.11,1.46,4.36,2.13,6.46,2.6-12.12.47-25.68-6.87-35.67,1.31,1.52,3.22,2.58,5.13,3.22-4.95-4.82-5.8-12.34-6.59-19.21-.79-6.87.38-14.46-5.2-18.55h-3.1c.08,1.45.16,2.91.23,4.36.37,8.32.59,17.04.4,25.36-.2,8.08-.55,29.7-.68,38.04-.19,8.45-.33,16.91-.56,25.36h-.28c-.52-19.51-.81-43.81-1.24-63.41-.17-9.86.03-19.83.63-29.72h-3.02c-5.57,4.09-4.82,11.68-5.61,18.55-.79,6.87-1.63,14.39-6.59,19.21,1.9-.64,3.81-1.7,5.13-3.22Z"/>
        <path d="M504.13,80.93h8.4l2.73-12.25s-5.62-5.29-5.62-11.16h-.76v9.96c.58.22,1,.78,1,1.44,0,.85-.69,1.54-1.54,1.54s-1.54-.69-1.54-1.54c0-.66.41-1.22,1-1.44v-9.96h-.76c0,5.87-5.62,11.16-5.62,11.16l2.73,12.25Z"/>
        <polyline class="cls-6" points="501.42 68.79 504.13 80.93 504.16 80.93"/>
        <rect x="504.34" y="83.16" width="7.98" height="6.97" transform="translate(1016.66 173.29) rotate(180)"/>
      </g>
    </g>
  </g>
</svg>